Coordinates
version=1
nRows=26
nColumns=24
inDegrees=yes

Units are S.I. units (second, meters, Newtons, ...)
Angles are in degrees.

endheader
time	pelvis_tilt	pelvis_list	pelvis_rotation	pelvis_tx	pelvis_ty	pelvis_tz	hip_flexion_r	hip_adduction_r	hip_rotation_r	knee_angle_r	ankle_angle_r	subtalar_angle_r	mtp_angle_r	hip_flexion_l	hip_adduction_l	hip_rotation_l	knee_angle_l	ankle_angle_l	subtalar_angle_l	mtp_angle_l	lumbar_extension	lumbar_bending	lumbar_rotation
      0.40000000	      5.20514053	     -1.91801457	     -0.86580311	      0.60176552	      1.04544408	     -0.02166068	     19.68564106	     -2.80054687	     -6.55213315	    -55.15572876	      2.76501569	      0.00481666	      0.00000000	     -6.25063238	      1.23962322	     -0.93266222	     -7.28764807	      5.46037093	      0.05986966	      0.00000000	    -16.77343326	     -0.23593756	     -5.25185981
      0.41700000	      5.17143862	     -1.78525549	     -0.70814376	      0.59903123	      1.04451854	     -0.02304243	     20.19187287	     -3.02098683	     -7.04348595	    -50.30073891	      2.78087130	     -0.01756439	      0.00000000	     -7.70674104	      1.46224548	     -0.70037625	     -6.29555720	      5.66639928	     -0.00484308	      0.00000000	    -17.05358590	     -0.20247158	     -5.56784696
      0.43300000	      5.10380650	     -1.46114953	     -0.78046578	      0.59678749	      1.04298760	     -0.02317575	     20.50002552	     -3.36682530	     -7.60111484	    -44.97233558	      2.67323003	     -0.00721332	      0.00000000	     -9.18226461	      1.86066599	     -0.74453296	     -5.26376174	      5.91362267	     -0.01868656	      0.00000000	    -17.09987754	     -0.50934002	     -5.53596683
      0.45000000	      5.23255683	     -1.00820456	     -0.66708015	      0.59466014	      1.04126711	     -0.02341997	     20.32224742	     -3.85253931	     -8.44514725	    -39.19753180	      2.42734292	      0.03472312	      0.00000000	    -10.77968707	      2.35793672	     -0.56557773	     -4.40996891	      6.25751333	     -0.02116421	      0.00000000	    -17.33323378	     -0.87587970	     -5.66505993
      0.46700000	      5.03447028	     -0.30319505	     -0.61343427	      0.59211101	      1.03859356	     -0.02346592	     20.38692708	     -4.44396410	     -9.15634855	    -33.15790306	      1.97770739	      0.00051783	      0.00000000	    -11.86752962	      3.10892206	     -0.37390703	     -3.83742160	      6.69034008	     -0.03009345	      0.00000000	    -17.22345045	     -1.58343186	     -5.86230667
      0.48300000	      5.00999499	      0.00974676	     -0.18353379	      0.59080835	      1.03622078	     -0.02316715	     19.73771576	     -4.53859892	    -10.18787846	    -26.49784098	      1.45311171	      0.00698368	      0.00000000	    -13.42084817	      3.29322033	      0.15680804	     -2.85758844	      6.98387613	     -0.01420037	      0.00000000	    -17.24608263	     -1.78696628	     -6.16543927
      0.50000000	      4.87493120	      0.45172458	     -0.20372299	      0.58980044	      1.03318472	     -0.02175411	     19.20809061	     -4.43768088	    -10.25170054	    -19.88881387	      0.96166419	      0.00383180	      0.00000000	    -14.84360895	      3.67052130	      0.24699266	     -1.99931891	      7.30953552	     -0.03720849	      0.00000000	    -17.09303175	     -2.29686015	     -5.92647438
      0.51700000	      4.68886508	      0.99986407	     -0.11676844	      0.58851545	      1.02959066	     -0.02097504	     18.76181497	     -4.47279167	     -9.71369558	    -13.65914863	      0.66388432	      0.01120721	      0.00000000	    -16.08045558	      4.15198033	      0.51607130	     -1.39204822	      7.74072726	     -0.03795589	      0.00000000	    -16.92953235	     -2.75145395	     -6.08670114
      0.53300000	      4.50047591	      1.56211600	      0.20972608	      0.58745666	      1.02566005	     -0.02047868	     18.29398644	     -4.66528610	     -8.83956458	     -8.06432804	      0.65273486	     -0.00268078	      0.00000000	    -17.19009163	      4.56308993	      1.08586872	     -1.07917033	      8.31820674	     -0.05580936	      0.00000000	    -16.74728042	     -3.14539784	     -6.26035691
      0.55000000	      4.40190626	      2.17045936	      0.11853561	      0.58696565	      1.02166925	     -0.01958153	     17.83903804	     -4.91208028	     -7.29847093	     -3.36809677	      0.85980095	     -0.01438802	      0.00000000	    -18.46296530	      5.12836626	      1.30995127	     -0.71076433	      8.77665371	     -0.08681279	      0.00000000	    -16.61610870	     -3.58329037	     -6.28415589
      0.56700000	      4.34821187	      2.61045152	      0.09008282	      0.58610546	      1.01777831	     -0.01884458	     17.74252178	     -5.15311803	     -5.85489077	     -0.40348931	      1.38148059	      0.01272140	      0.00000000	    -19.57795104	      5.49262281	      1.58466212	     -0.72514698	      9.38878496	     -0.05624847	      0.00000000	    -16.56747078	     -3.81072733	     -6.13186607
      0.58300000	      4.17441933	      2.94792577	      0.75890051	      0.58445738	      1.01429277	     -0.01865983	     17.97800773	     -5.54383932	     -5.46984499	      0.97727416	      1.76916811	      0.00067192	      0.00000000	    -20.08335787	      5.49191248	      2.47387886	     -1.62966267	     10.29788873	      0.02637204	      0.00000000	    -16.64615355	     -3.69647660	     -6.62409459
      0.60000000	      4.12461335	      2.99612024	      0.84487473	      0.58506542	      1.01154041	     -0.01686806	     18.24456335	     -5.42262039	     -5.02992282	      0.91160158	      1.94872662	      0.07573356	      0.00000000	    -20.93994764	      5.30736047	      2.83544683	     -2.31539990	     10.89146254	     -0.09407408	      0.00000000	    -16.46463254	     -3.47626640	     -6.33661332
      0.61700000	      4.09615550	      2.66389925	      1.07495475	      0.58580602	      1.00925920	     -0.01443182	     18.77259257	     -4.92830669	     -5.01000763	     -0.68974372	      1.61203809	      0.00294771	      0.00000000	    -21.59434392	      4.63081754	      3.15748201	     -3.39740087	     11.51528178	     -0.17946480	      0.00000000	    -16.42228163	     -2.87395855	     -6.43353180
      0.63300000	      4.11414692	      2.60480127	      1.66185984	      0.58674833	      1.00780119	     -0.01203310	     19.40274804	     -4.83498022	     -5.42095215	     -3.41997761	      0.95329808	     -0.06483087	      0.00000000	    -22.00025298	      4.07433242	      3.76770438	     -5.03773902	     12.04752065	     -0.00680921	      0.00000000	    -16.46160658	     -2.49842845	     -6.79965446
      0.65000000	      3.98210016	      2.47862342	      2.13396081	      0.58820597	      1.00652821	     -0.00900856	     20.25858380	     -4.66498774	     -5.86410647	     -6.68617055	      0.01159994	     -0.00558013	      0.00000000	    -22.15578972	      3.48855877	      4.37876114	     -6.84130760	     12.38850356	      0.05328563	      0.00000000	    -16.23861831	     -2.14256806	     -7.17869953
      0.66700000	      3.82855654	      2.43203292	      2.50980029	      0.59015891	      1.00591142	     -0.00648542	     21.00248131	     -4.62486478	     -6.13548332	     -9.92532390	     -1.06088133	      0.00032744	      0.00000000	    -22.08794325	      3.10326809	      5.00359257	     -9.05269306	     12.38383090	      0.04604386	      0.00000000	    -15.94100216	     -1.66436936	     -7.32528886
      0.68300000	      3.96155484	      2.36911093	      2.65293913	      0.59185977	      1.00616290	     -0.00368662	     21.55380290	     -4.52569736	     -6.13692664	    -13.48935788	     -1.63900378	      0.02898519	      0.00000000	    -21.95576920	      2.81580074	      5.38055305	    -11.92040038	     12.10283449	      0.08826531	      0.00000000	    -15.90514104	     -1.16800913	     -7.24683480
      0.70000000	      4.18197062	      2.10112671	      2.93585270	      0.59525318	      1.00736278	     -0.00128137	     21.67212423	     -4.28159143	     -6.19335409	    -16.77513733	     -1.69601463	      0.02302299	      0.00000000	    -21.64319052	      2.31437756	      5.77099181	    -15.35823490	     11.30250598	      0.01642641	      0.00000000	    -15.95491605	     -0.48382730	     -7.30870567
      0.71700000	      4.45436885	      1.84022073	      3.15872899	      0.59831370	      1.00913884	      0.00113068	     21.24326508	     -4.00780226	     -6.25623801	    -19.13260431	     -1.58428754	      0.01486505	      0.00000000	    -20.76426326	      1.88560302	      5.86139921	    -19.79939715	     10.02623692	      0.00120389	      0.00000000	    -15.94718747	      0.33483174	     -7.41191753
      0.73300000	      4.59394978	      1.68859529	      3.32774423	      0.60054167	      1.01074735	      0.00419680	     20.85416569	     -3.79261717	     -6.31714147	    -21.24665880	     -1.15630864	     -0.01434074	      0.00000000	    -18.79102290	      1.59508167	      5.53762885	    -25.76865969	      8.29479628	      0.02100331	      0.00000000	    -15.88904825	      0.82376338	     -7.26941961
      0.75000000	      4.74107384	      1.39877963	      3.42487403	      0.60319237	      1.01274489	      0.00729975	     19.98958174	     -3.38580487	     -6.54807863	    -22.55489600	     -0.45832098	     -0.00080377	      0.00000000	    -16.41852834	      1.07597026	      4.60754196	    -32.08006350	      5.54905200	      0.05946617	      0.00000000	    -15.80027620	      1.40705416	     -7.50047351
      0.76700000	      4.64792773	      1.03777340	      3.53744232	      0.60515229	      1.01448468	      0.01027666	     19.23127404	     -2.87386549	     -6.75646737	    -23.52729304	      0.52966060	     -0.01936445	      0.00000000	    -13.21667465	      0.27825714	      3.14576857	    -38.83131172	      1.93741010	      0.07228054	      0.00000000	    -15.52788088	      2.05218043	     -7.20730908
      0.78300000	      4.56563123	      0.47373428	      3.60330255	      0.60572226	      1.01623451	      0.01377767	     18.22239222	     -2.05375490	     -7.04583502	    -23.81212962	      1.43289985	     -0.02241402	      0.00000000	     -9.76499171	     -1.00137817	      1.38598091	    -45.33487797	     -1.98857565	      0.03938795	      0.00000000	    -15.35061517	      2.77867187	     -6.73000588
      0.80000000	      4.59099843	     -0.26786416	      3.49483900	      0.60625104	      1.01801438	      0.01746628	     17.06473703	     -0.94612122	     -7.12612993	    -23.97703149	      2.52170286	     -0.00536040	      0.00000000	     -6.45678004	     -2.69075601	     -0.53849531	    -51.27230475	     -5.37949054	      0.01760617	      0.00000000	    -15.27100532	      3.64982552	     -5.88905502
      0.81700000	      4.65984822	     -1.04137141	      3.57042743	      0.60647712	      1.02039476	      0.02125422	     15.50251538	      0.20593784	     -7.39911784	    -23.39522079	      3.38436161	      0.02791507	      0.00000000	     -3.42144962	     -4.47888959	     -1.85939530	    -56.26690997	     -7.36740835	     -0.00056774	      0.00000000	    -15.09668197	      4.46097480	     -5.72912987
